<svg width="24" height="14" viewBox="0 0 24 14" fill="none" xmlns="http://www.w3.org/2000/svg">
    <path d="M9.76693 2.17564C10.5505 1.41219 10.9423 1.03046 11.3919 0.886981C11.7875 0.760724 12.2125 0.760724 12.6081 0.886981C13.0577 1.03046 13.4495 1.41219 14.2331 2.17563L20.2194 8.00797C21.9831 9.72631 22.8649 10.5855 22.9299 11.3249C22.9863 11.9663 22.7304 12.5956 22.2424 13.0157C21.6799 13.5 20.4487 13.5 17.9863 13.5H6.01368C3.55131 13.5 2.32012 13.5 1.75757 13.0157C1.26959 12.5956 1.01371 11.9663 1.07008 11.3249C1.13506 10.5855 2.01691 9.72631 3.78061 8.00797L9.76693 2.17564Z" fill="#F8F8F8" stroke="#D8D8D8"/>
</svg>
