<svg width="24" height="24" viewBox="0 0 24 24" fill="none" xmlns="http://www.w3.org/2000/svg">
<path fill-rule="evenodd" clip-rule="evenodd" d="M5 9C5 6.79086 6.79086 5 9 5H15C17.2091 5 19 6.79086 19 9V15C19 17.2091 17.2091 19 15 19H9C6.79086 19 5 17.2091 5 15V9Z" stroke="#222222" stroke-width="1.5" stroke-linecap="round" stroke-linejoin="round"/>
<path d="M10.2499 7.99987C10.2499 7.58566 9.91409 7.24987 9.49988 7.24987C9.08566 7.24987 8.74988 7.58566 8.74988 7.99987H10.2499ZM8.74988 9.49988C8.74988 9.91409 9.08566 10.2499 9.49988 10.2499C9.91409 10.2499 10.2499 9.91409 10.2499 9.49988H8.74988ZM10.2499 9.49988C10.2499 9.08566 9.91409 8.74988 9.49988 8.74988C9.08566 8.74988 8.74988 9.08566 8.74988 9.49988H10.2499ZM8.74988 10.9999C8.74988 11.4141 9.08566 11.7499 9.49988 11.7499C9.91409 11.7499 10.2499 11.4141 10.2499 10.9999H8.74988ZM9.49988 10.2499C9.91409 10.2499 10.2499 9.91409 10.2499 9.49988C10.2499 9.08566 9.91409 8.74988 9.49988 8.74988V10.2499ZM7.99987 8.74988C7.58566 8.74988 7.24987 9.08566 7.24987 9.49988C7.24987 9.91409 7.58566 10.2499 7.99987 10.2499V8.74988ZM9.49988 8.74988C9.08566 8.74988 8.74988 9.08566 8.74988 9.49988C8.74988 9.91409 9.08566 10.2499 9.49988 10.2499V8.74988ZM10.9999 10.2499C11.4141 10.2499 11.7499 9.91409 11.7499 9.49988C11.7499 9.08566 11.4141 8.74988 10.9999 8.74988V10.2499ZM12.9999 15.2499C12.5857 15.2499 12.2499 15.5857 12.2499 15.9999C12.2499 16.4141 12.5857 16.7499 12.9999 16.7499V15.2499ZM15.9999 16.7499C16.4141 16.7499 16.7499 16.4141 16.7499 15.9999C16.7499 15.5857 16.4141 15.2499 15.9999 15.2499V16.7499ZM18.3582 6.70221C18.6511 6.40931 18.6511 5.93444 18.3582 5.64154C18.0653 5.34865 17.5904 5.34865 17.2975 5.64154L18.3582 6.70221ZM5.64154 17.2975C5.34865 17.5904 5.34865 18.0653 5.64154 18.3582C5.93444 18.6511 6.40931 18.6511 6.70221 18.3582L5.64154 17.2975ZM8.74988 7.99987V9.49988H10.2499V7.99987H8.74988ZM8.74988 9.49988V10.9999H10.2499V9.49988H8.74988ZM9.49988 8.74988H7.99987V10.2499H9.49988V8.74988ZM9.49988 10.2499H10.9999V8.74988H9.49988V10.2499ZM12.9999 16.7499H15.9999V15.2499H12.9999V16.7499ZM17.2975 5.64154L5.64154 17.2975L6.70221 18.3582L18.3582 6.70221L17.2975 5.64154Z" fill="#222222"/>
</svg>
