<svg width="24" height="22" viewBox="0 0 24 22" fill="none" xmlns="http://www.w3.org/2000/svg">
<path d="M1.5 20C1.5 20.8297 2.17031 21.5 3 21.5H10.5V14H1.5V20ZM13.5 21.5H21C21.8297 21.5 22.5 20.8297 22.5 20V14H13.5V21.5ZM22.5 6.5H20.5266C20.8172 5.93281 21 5.30469 21 4.625C21 2.35156 19.1484 0.5 16.875 0.5C14.925 0.5 13.6641 1.49844 12.0469 3.70156C10.4297 1.49844 9.16875 0.5 7.21875 0.5C4.94531 0.5 3.09375 2.35156 3.09375 4.625C3.09375 5.30469 3.27187 5.93281 3.56719 6.5H1.5C0.670312 6.5 0 7.17031 0 8V11.75C0 12.1625 0.3375 12.5 0.75 12.5H23.25C23.6625 12.5 24 12.1625 24 11.75V8C24 7.17031 23.3297 6.5 22.5 6.5ZM7.21406 6.5C6.17812 6.5 5.33906 5.66094 5.33906 4.625C5.33906 3.58906 6.17812 2.75 7.21406 2.75C8.14687 2.75 8.83594 2.90469 11.25 6.5H7.21406ZM16.875 6.5H12.8391C15.2484 2.91406 15.9187 2.75 16.875 2.75C17.9109 2.75 18.75 3.58906 18.75 4.625C18.75 5.66094 17.9109 6.5 16.875 6.5Z" fill="white"/>
</svg>
