<svg width="40" height="48" viewBox="0 0 40 48" fill="none" xmlns="http://www.w3.org/2000/svg">
<path d="M28.9655 22.1455H27.3096V42.2062H28.9655V22.1455Z" fill="#EE6D34"/>
<path d="M30.6193 48.0004H26.4811C25.5688 48.0004 24.8252 47.2585 24.8252 46.3445C24.8252 45.0362 25.6119 43.8915 26.8306 43.4268L27.421 44.9743C26.8409 45.1946 26.4811 45.7196 26.4811 46.3445H30.6193V48.0004Z" fill="#EE6D34"/>
<path d="M34.758 48.0003H30.6198C29.7075 48.0003 28.9639 47.2584 28.9639 46.3443C28.9639 44.9776 29.8022 43.8139 31.1001 43.3802L31.4461 43.2648V30.6197H33.102V44.4577L31.6234 44.95C31.0037 45.1566 30.6181 45.6902 30.6181 46.3426H34.7562C35.2124 46.3426 35.5842 45.9725 35.5842 45.5146V22.1455H37.2401V45.5181C37.2419 46.8866 36.1281 48.0003 34.758 48.0003Z" fill="#EE6D34"/>
<path d="M32.2758 11.5868C29.995 11.5868 28.1377 9.72941 28.1377 7.44689V5.79095C28.1377 3.51015 29.9933 1.65625 32.2758 1.65625C34.5584 1.65625 36.414 3.51015 36.414 5.79095V7.44689C36.414 9.72941 34.5566 11.5868 32.2758 11.5868ZM32.2758 3.31047C30.9074 3.31047 29.7936 4.42419 29.7936 5.79095V7.44689C29.7936 8.81709 30.9074 9.93253 32.2758 9.93253C33.6443 9.93253 34.758 8.81881 34.758 7.44689V5.79095C34.758 4.42419 33.6443 3.31047 32.2758 3.31047Z" fill="#EE6D34"/>
<path d="M7.44869 11.5869C5.16789 11.5869 3.31055 9.72953 3.31055 7.44701V6.85831H4.96649V7.44701C4.96649 8.81721 6.08021 9.93265 7.44869 9.93265C8.81716 9.93265 9.93088 8.81893 9.93088 7.44701V4.49316H11.5868V7.44701C11.5868 9.72953 9.72948 11.5869 7.44869 11.5869Z" fill="#EE6D34"/>
<path d="M37.2416 23.1731C36.9214 23.1731 36.6184 23.1128 36.2879 22.982L29.6779 20.5032C28.7484 20.1762 28.1373 19.2725 28.1373 18.2069C28.1373 16.8385 29.251 15.7247 30.6195 15.7247C30.981 15.7247 31.2788 15.8125 31.5456 15.9055L36.5943 17.7921L36.0142 19.3413L30.981 17.4599C30.8157 17.4013 30.7142 17.379 30.6195 17.379C30.1634 17.379 29.7915 17.7491 29.7915 18.2069C29.7915 18.3429 29.8242 18.8008 30.2425 18.9471L36.8801 21.4362C37.0281 21.4947 37.1297 21.5171 37.2398 21.5171C37.696 21.5171 38.0678 21.147 38.0678 20.6891V17.379C38.0678 14.1859 35.4686 11.5866 32.2755 11.5866C29.0823 11.5866 26.4831 14.1859 26.4831 17.379V19.0349H24.8271V17.379C24.8271 13.2718 28.1683 9.93066 32.2755 9.93066C36.3826 9.93066 39.7238 13.2718 39.7238 17.379V20.6891C39.7238 22.0593 38.61 23.1731 37.2416 23.1731Z" fill="#EE6D34"/>
<path d="M27.3093 23.1734C25.9409 23.1734 24.8271 22.0597 24.8271 20.6912V18.209H26.4831V20.6912C26.4831 21.1405 26.8618 21.5192 27.3111 21.5192C27.4212 21.5192 27.5228 21.4968 27.6588 21.4434L31.9863 19.8202L32.5681 21.3694L28.2526 22.9875C27.9325 23.1114 27.6295 23.1734 27.3093 23.1734Z" fill="#EE6D34"/>
<path d="M16.5506 48H12.6948C11.5277 48 10.5052 47.1703 10.2659 46.0273L8.89746 39.9406L10.5121 39.5774L11.884 45.6762C11.9666 46.0686 12.3075 46.3441 12.6965 46.3441H16.5523C16.5523 45.69 16.1685 45.1563 15.5488 44.9515L14.1855 44.4953L10.7238 28.0254L12.3436 27.6846L15.609 43.2267L16.0721 43.3816C17.37 43.8137 18.2083 44.9756 18.2083 46.3458C18.2066 47.2564 17.4629 48 16.5506 48Z" fill="#EE6D34"/>
<path d="M6.62033 48.0001H2.36514C1.06035 48.0001 0 46.938 0 45.635C0 45.5162 0.0103281 45.3974 0.0258203 45.2804L3.31877 23.0508L4.95578 23.2935L1.66455 45.5214C1.65939 45.5575 1.65594 45.5954 1.65594 45.635C1.65594 46.0257 1.97439 46.3442 2.36514 46.3442H6.62033C6.62033 45.6814 6.24508 45.1599 5.61506 44.9499L4.31544 44.5161L6.76148 30.549L8.39161 30.8348L6.19172 43.3989C7.45863 43.8448 8.27456 44.9946 8.27456 46.3442C8.27628 47.2565 7.53265 48.0001 6.62033 48.0001Z" fill="#EE6D34"/>
<path d="M2.2189 8.42087L1.95209 7.617C1.75414 7.02141 1.6543 6.40861 1.6543 5.79236C1.65602 2.59925 4.25354 0 7.44838 0C9.82901 0 12.0031 1.49758 12.8552 3.72329L13.1581 4.51339L2.2189 8.42087ZM7.44838 1.65594C5.16758 1.65594 3.31024 3.51156 3.31024 5.79408C3.31024 5.95073 3.31885 6.10909 3.33778 6.26573L10.9221 3.55632C10.1698 2.39268 8.85989 1.65594 7.44838 1.65594Z" fill="#EE6D34"/>
<path d="M20.5646 29.8929L6.50977 28.0201L7.21896 23.054L8.85769 23.2898L8.38604 26.6L19.1583 28.0356L20.5784 18.0879L9.80616 16.6523L9.33107 19.9796L7.69234 19.7438L8.39981 14.7949L22.4547 16.6695L20.5646 29.8929Z" fill="#EE6D34"/>
<path d="M23.9988 11.5864H14.8963C13.9771 11.5864 13.2506 10.8634 13.2403 9.93903C13.2352 9.41057 13.4779 8.92515 13.903 8.60498L14.8945 7.86135V2.48212C14.8945 1.5698 15.6364 0.826172 16.5505 0.826172H23.9988C24.9111 0.826172 25.6547 1.56808 25.6547 2.48212V9.93042C25.6547 10.8427 24.9111 11.5864 23.9988 11.5864ZM16.5505 2.48212V8.68932L14.8963 9.93042H23.9988V2.48212H16.5505Z" fill="#EE6D34"/>
<path d="M9.10268 23.9993H3.31032C1.94184 23.9993 0.828125 22.8856 0.828125 21.5171V16.551C0.828125 12.9 3.79746 9.93066 7.44846 9.93066C10.9893 9.93066 13.8949 12.7003 14.0619 16.236L12.4077 16.3134C12.2837 13.6626 10.1045 11.5849 7.44846 11.5849C4.70978 11.5849 2.48235 13.8123 2.48235 16.551V21.5171C2.48235 21.9733 2.85244 22.3451 3.31032 22.3451H9.10268C9.55884 22.3451 9.93065 21.975 9.93065 21.5171C9.93065 21.0592 9.56056 20.6891 9.10268 20.6891H4.96626V19.0332H9.1044C10.4729 19.0332 11.5866 20.1469 11.5866 21.5154C11.5866 22.8856 10.4729 23.9993 9.10268 23.9993Z" fill="#EE6D34"/>
</svg>
