<svg width="48" height="48" viewBox="0 0 48 48" fill="none" xmlns="http://www.w3.org/2000/svg">
<path d="M41.2555 48.0004L39.8115 46.9715C40.5159 45.9977 40.8894 44.846 40.8894 43.6429V38.7939H42.668V43.6429C42.6662 45.2183 42.1781 46.724 41.2555 48.0004Z" fill="#EE6D34"/>
<path d="M42.6663 35.2686H40.8877V37.0328H42.6663V35.2686Z" fill="#EE6D34"/>
<path d="M35.1098 47.6129C32.9041 47.6129 31.1107 45.834 31.1107 43.6461V40.3688L1.7786 37.8655V39.6774H0V35.9435L32.8875 38.7494V43.6461C32.8875 44.862 33.884 45.8505 35.1098 45.8505C36.3356 45.8505 37.3321 44.862 37.3321 43.6461V32.624H39.1107V43.6461C39.1107 45.8321 37.3155 47.6129 35.1098 47.6129Z" fill="#EE6D34"/>
<path d="M34.7788 47.5979L4.06379 44.979C1.74717 44.7809 0 42.8938 0 40.5867V38.7949H1.7786V40.5867C1.7786 41.9695 2.8269 43.1029 4.21724 43.2221L34.9323 45.841L34.7788 47.5979Z" fill="#EE6D34"/>
<path d="M4.44462 9.69833H2.66602C2.66602 6.71082 3.56271 3.782 5.19155 1.44922L6.654 2.45239C5.22853 4.49358 4.44462 7.06661 4.44462 9.69833Z" fill="#EE6D34"/>
<path d="M4.44462 11.4619H2.66602V13.2262H4.44462V11.4619Z" fill="#EE6D34"/>
<path d="M8.00028 37.4364H6.22168V9.69793C6.22168 4.35013 9.81031 0 14.2217 0H44.811L41.973 2.81511C40.126 4.64723 39.1091 7.08272 39.1091 9.67409V21.162H37.3305V9.67226C37.3305 6.70126 38.462 3.90448 40.5217 1.76243H14.2217C10.7921 1.76243 8.00028 5.32213 8.00028 9.69793V37.4364Z" fill="#EE6D34"/>
<path d="M13.3335 16.2363L10.416 13.3442L11.6732 12.0971L13.3335 13.7421L17.6654 9.44336L18.9226 10.6904L13.3335 16.2363Z" fill="#EE6D34"/>
<path d="M30.2217 12.3447H19.5557V14.109H30.2217V12.3447Z" fill="#EE6D34"/>
<path d="M13.3337 24.1719L10.4199 21.2816L11.6771 20.0345L13.3337 21.6777L17.6656 17.3789L18.9228 18.626L13.3337 24.1719Z" fill="#EE6D34"/>
<path d="M30.2217 20.2803H19.5557V22.0445H30.2217V20.2803Z" fill="#EE6D34"/>
<path d="M13.3341 32.1069L10.4092 29.2056L11.6664 27.9603L13.3341 29.6127L17.6456 25.3359L18.9028 26.5812L13.3341 32.1069Z" fill="#EE6D34"/>
<path d="M26.6664 28.2158H19.5557V29.9801H26.6664V28.2158Z" fill="#EE6D34"/>
<path d="M24.8889 3.52637H23.1104V5.29063H24.8889V3.52637Z" fill="#EE6D34"/>
<path d="M20.4446 3.52637H18.666V5.29063H20.4446V3.52637Z" fill="#EE6D34"/>
<path d="M29.3324 3.52637H27.5557V5.29063H29.3324V3.52637Z" fill="#EE6D34"/>
<path d="M33.2569 34.3867H28.4443V29.613L42.6103 15.5612C43.3517 14.824 44.6551 14.8331 45.3873 15.5612L47.4228 17.5804C47.7945 17.949 47.9997 18.4405 47.9997 18.9632C47.9997 19.4712 47.7889 19.9719 47.4228 20.335L33.2569 34.3867ZM30.2211 32.6225H32.5192L46.1656 19.0861C46.2044 19.0476 46.2211 18.9944 46.2211 18.9595C46.2211 18.9302 46.2137 18.8715 46.1656 18.8238L44.13 16.8046C44.0283 16.7038 43.9396 16.7331 43.8656 16.8046L30.2192 30.341V32.6225H30.2211Z" fill="#EE6D34"/>
</svg>
