<svg width="48" height="48" viewBox="0 0 48 48" fill="none" xmlns="http://www.w3.org/2000/svg">
<path d="M17.8903 29.6348L17.2356 28.0897C20.022 26.9112 21.822 24.1841 21.822 21.141V11.9069C21.822 9.5936 20.3171 7.70978 18.4647 7.70978C14.6412 7.70978 12.7259 4.09577 12.6456 3.94387C11.935 2.65016 10.6239 1.83483 9.23063 1.83483C6.91731 1.83483 5.03349 4.09402 5.03349 6.87175C5.03349 9.64947 6.91906 11.9069 9.23237 11.9069C11.5073 11.9069 13.7193 10.8873 13.7403 10.8768L14.4526 12.3975C14.3496 12.4464 11.8896 13.5847 9.23237 13.5847C5.99373 13.5847 3.35742 10.5731 3.35742 6.87C3.35742 3.16695 5.99373 0.155273 9.23237 0.155273C11.2367 0.155273 13.1135 1.30408 14.1279 3.15298C14.1506 3.19663 15.673 6.03022 18.4647 6.03022C21.2424 6.03022 23.5016 8.66653 23.5016 11.9052V21.1375C23.5034 24.8597 21.3 28.1944 17.8903 29.6348Z" fill="#EE6D34"/>
<path d="M11.2296 29.8603C7.52481 28.5701 5.03516 25.0643 5.03516 21.1395V11.249H6.71471V21.1395C6.71471 24.352 8.75043 27.2188 11.7813 28.275L11.2296 29.8603Z" fill="#EE6D34"/>
<path d="M5.8754 47.1602V45.4806C6.11109 45.4806 6.34853 45.4614 6.58423 45.4247C7.74874 45.2432 8.8312 44.6321 9.48242 43.7906L14.6869 37.0706C14.858 36.8437 14.982 36.5835 15.0466 36.3042L16.7331 28.7287C16.7698 28.5663 16.7873 28.4179 16.7873 28.2713C16.7873 27.1138 15.8462 26.1727 14.6887 26.1727C13.7005 26.1727 12.8607 26.8484 12.6442 27.8139L11.066 34.9022L6.10411 41.5279L4.75977 40.5205L9.50512 34.1847L11.0066 27.449C11.3959 25.7083 12.9096 24.4932 14.6887 24.4932C16.7716 24.4932 18.4651 26.1867 18.4651 28.2695C18.4651 28.5384 18.4354 28.8073 18.3708 29.0901L16.6825 36.6743C16.562 37.1893 16.3386 37.6625 16.0208 38.085L10.8093 44.8137C9.88747 46.0026 8.44361 46.8285 6.84437 47.0781C6.52487 47.1357 6.19839 47.1602 5.8754 47.1602Z" fill="#EE6D34"/>
<path d="M28.5387 48.0002H26.8591V40.2851C26.8591 38.2162 25.5619 36.3272 23.631 35.5852L16.5479 32.8598L17.1519 31.292L24.235 34.0173C26.8102 35.0073 28.5387 37.5266 28.5387 40.2851V48.0002Z" fill="#EE6D34"/>
<path d="M22.6639 40.4453H20.9844V47.9998H22.6639V40.4453Z" fill="#EE6D34"/>
<path d="M36.9325 17.7822H35.2529V19.4618H36.9325V17.7822Z" fill="#EE6D34"/>
<path d="M36.9332 16.1045H35.2536C35.2536 14.1125 36.2593 13.222 37.5739 12.267C38.2234 11.7939 38.611 11.0309 38.611 10.2296C38.611 9.5574 38.3491 8.92539 37.8725 8.44876C37.3959 7.97213 36.7342 7.73294 36.0899 7.71199C34.7037 7.71199 33.5741 8.84158 33.5741 10.2313C33.5741 10.4321 33.5985 10.6329 33.6439 10.8284L32.0133 11.2212C31.9347 10.8983 31.8945 10.5648 31.8945 10.2313C31.8945 7.918 33.7766 6.03418 36.0882 6.03418C36.0882 6.03418 36.0882 6.03418 36.0899 6.03418C37.2108 6.03418 38.2653 6.47065 39.058 7.26329C39.8506 8.05593 40.2888 9.11045 40.2888 10.2313C40.2888 11.5687 39.6428 12.8379 38.5604 13.6271C37.4046 14.4651 36.9332 14.926 36.9332 16.1045Z" fill="#EE6D34"/>
<path d="M29.3778 27.0159C29.0112 27.0159 28.6393 26.9792 28.2727 26.9076C27.4538 26.747 26.8602 26.012 26.8602 25.1617C26.8602 24.5838 27.1273 24.0461 27.5725 23.7231C28.3652 23.1504 28.9623 22.2338 29.2259 21.2107C26.6839 19.1453 25.1807 16.0202 25.1807 12.7449C25.1807 6.72851 30.0762 1.83301 36.0925 1.83301C42.1089 1.83301 47.0044 6.72851 47.0044 12.7449C47.0044 18.7612 42.1089 23.6567 36.0925 23.6567C35.8149 23.6567 35.5321 23.6428 35.2266 23.6166C33.98 25.6156 31.6108 27.0159 29.3778 27.0159ZM36.0925 3.51256C31.0015 3.51256 26.8602 7.65384 26.8602 12.7449C26.8602 15.6675 28.2761 18.4505 30.6488 20.1894L31.0591 20.4897L30.9823 20.9925C30.7344 22.6371 29.8265 24.1665 28.5572 25.0849C28.5398 25.2106 28.5712 25.256 28.5974 25.2595C28.8575 25.3101 29.1212 25.3363 29.3796 25.3363C31.1708 25.3363 33.1647 24.0513 34.0184 22.3456L34.2873 21.8096L34.8791 21.8882C35.3418 21.9493 35.7276 21.9772 36.0943 21.9772C41.1853 21.9772 45.3266 17.8359 45.3266 12.7449C45.3266 7.65558 41.1836 3.51256 36.0925 3.51256Z" fill="#EE6D34"/>
<path d="M40.5972 26.2858L40.0664 24.6936C41.9886 24.0511 43.752 22.9337 45.1679 21.4619L46.3778 22.6264C44.7768 24.2938 42.776 25.5595 40.5972 26.2858Z" fill="#EE6D34"/>
<path d="M26.3478 4.78376L25.0488 3.72051C26.3268 2.15968 27.8859 0.906122 29.6824 0L30.4402 1.49798C28.8531 2.29935 27.4774 3.4045 26.3478 4.78376Z" fill="#EE6D34"/>
<path d="M5.87495 47.1602C2.52632 47.1602 0 44.6339 0 41.2852V40.4455C0 37.6363 1.77034 34.9913 4.30364 34.0171L10.4544 31.6514L11.0585 33.2192L4.90772 35.5849C3.00644 36.3147 1.67955 38.3137 1.67955 40.4455V41.2852C1.67955 43.6771 3.48307 45.4824 5.8767 45.4824C6.11239 45.4824 6.34984 45.4632 6.58553 45.4265L6.84742 47.0834C6.52443 47.1357 6.19794 47.1602 5.87495 47.1602Z" fill="#EE6D34"/>
</svg>
