<svg width="42" height="42" viewBox="0 0 42 42" fill="none" xmlns="http://www.w3.org/2000/svg">
<path d="M3.83301 28.9997C3.83301 28.1712 3.16143 27.4997 2.33301 27.4997C1.50458 27.4997 0.833008 28.1712 0.833008 28.9997H3.83301ZM2.33301 31.6663H0.833008H2.33301ZM41.1663 28.9997C41.1663 28.1712 40.4948 27.4997 39.6663 27.4997C38.8379 27.4997 38.1663 28.1712 38.1663 28.9997H41.1663ZM22.171 3.27005C22.6885 2.62316 22.5836 1.67922 21.9367 1.1617C21.2898 0.64419 20.3459 0.749072 19.8284 1.39597L22.171 3.27005ZM9.16171 14.7293C8.64419 15.3762 8.74907 16.3201 9.39597 16.8376C10.0429 17.3552 10.9868 17.2503 11.5043 16.6034L9.16171 14.7293ZM22.171 1.39597C21.6535 0.749072 20.7095 0.64419 20.0626 1.1617C19.4157 1.67922 19.3109 2.62316 19.8284 3.27005L22.171 1.39597ZM30.495 16.6034C31.0126 17.2503 31.9565 17.3552 32.6034 16.8376C33.2503 16.3201 33.3552 15.3762 32.8376 14.7293L30.495 16.6034ZM22.4997 2.33301C22.4997 1.50458 21.8281 0.833008 20.9997 0.833008C20.1712 0.833008 19.4997 1.50458 19.4997 2.33301H22.4997ZM19.4997 31.6663C19.4997 32.4948 20.1712 33.1663 20.9997 33.1663C21.8281 33.1663 22.4997 32.4948 22.4997 31.6663H19.4997ZM0.833008 28.9997V31.6663H3.83301V28.9997H0.833008ZM0.833008 31.6663C0.833008 36.913 5.0863 41.1663 10.333 41.1663V38.1663C6.74316 38.1663 3.83301 35.2562 3.83301 31.6663H0.833008ZM10.333 41.1663H31.6663V38.1663H10.333V41.1663ZM31.6663 41.1663C36.913 41.1663 41.1663 36.913 41.1663 31.6663H38.1663C38.1663 35.2562 35.2562 38.1663 31.6663 38.1663V41.1663ZM41.1663 31.6663V28.9997H38.1663V31.6663H41.1663ZM19.8284 1.39597L9.16171 14.7293L11.5043 16.6034L22.171 3.27005L19.8284 1.39597ZM19.8284 3.27005L30.495 16.6034L32.8376 14.7293L22.171 1.39597L19.8284 3.27005ZM19.4997 2.33301V31.6663H22.4997V2.33301H19.4997Z" fill="#1589C9"/>
</svg>
